<svg xmlns="http://www.w3.org/2000/svg" viewBox="0 0 256 256" role="img" aria-labelledby="title desc">
  <title id="title">월간 모험 지원권 30일</title>
  <desc id="desc">보라색 타일 위 방패와 검, 별이 그려진 모험 지원권</desc>

  <rect width="256" height="256" rx="54" fill="#4c158f"/>
  <rect x="4" y="4" width="248" height="248" rx="50" fill="none" stroke="#6f35b3" stroke-width="4"/>

  <rect x="40" y="48" width="176" height="160" rx="28" fill="#fff8e8" stroke="#2a0a5e" stroke-width="8"/>
  <path d="M44 85h168" stroke="#ffca28" stroke-width="18"/>
  <path d="M44 85h168" stroke="#2a0a5e" stroke-width="8"/>

  <path d="M128 95c18 10 34 13 47 13v27c0 27-16 45-47 57-31-12-47-30-47-57v-27c13 0 29-3 47-13Z" fill="#52d3c4" stroke="#2a0a5e" stroke-width="8" stroke-linejoin="round"/>
  <path d="m111 161 37-48" stroke="#fff8e8" stroke-width="13" stroke-linecap="round"/>
  <path d="m111 161 37-48" stroke="#2a0a5e" stroke-width="6" stroke-linecap="round"/>
  <path d="m103 145 24 19" stroke="#2a0a5e" stroke-width="8" stroke-linecap="round"/>
  <path d="m108 166-10 13" stroke="#ffca28" stroke-width="11" stroke-linecap="round"/>

  <path d="M184 24c4 13 12 21 25 25-13 4-21 12-25 25-4-13-12-21-25-25 13-4 21-12 25-25Z" fill="#ffca28" stroke="#2a0a5e" stroke-width="7" stroke-linejoin="round"/>
</svg>
