<svg xmlns="http://www.w3.org/2000/svg" viewBox="0 0 800 280" preserveAspectRatio="none">
  <defs>
    <linearGradient id="cloud" x1="0" y1="0" x2="0" y2="1">
      <stop stop-color="#334155" stop-opacity=".68"/><stop offset="1" stop-color="#64748b" stop-opacity=".28"/>
    </linearGradient>
    <linearGradient id="bolt" x1="0" y1="0" x2="0" y2="1">
      <stop stop-color="#f8fafc"/><stop offset=".45" stop-color="#fde047"/><stop offset="1" stop-color="#818cf8"/>
    </linearGradient>
  </defs>
  <g fill="url(#cloud)" stroke="#94a3b8" stroke-opacity=".4" stroke-width="3">
    <path d="M0 0h260c-5 42-37 65-74 58-18 34-71 38-98 9C55 85 14 66 0 38Z"/>
    <path d="M800 0H540c5 42 37 65 74 58 18 34 71 38 98 9 33 18 74-1 88-29Z"/>
  </g>
  <g fill="url(#bolt)" stroke="#fef08a" stroke-opacity=".6" stroke-width="2">
    <path d="m118 50 52 0-31 65h34L91 218l24-78H80Z"/>
    <path d="m682 50-52 0 31 65h-34l82 103-24-78h35Z"/>
    <path d="m418 20-15 79h29l-52 92 11-66h-27Z" opacity=".54"/>
  </g>
  <g stroke="#60a5fa" stroke-width="3" stroke-linecap="round" opacity=".5">
    <path d="m210 89-26 68m76-68-26 68m332-68-26 68m76-68-26 68"/>
  </g>
</svg>
